<svg xmlns="http://www.w3.org/2000/svg" x="0px" y="0px"
     width="26" height="26"
     viewBox="0 0 172 172"
     style=" fill:#000000;">
    <g fill="none" fill-rule="nonzero" stroke="none" stroke-width="1" stroke-linecap="butt"
       stroke-linejoin="miter" stroke-miterlimit="10" stroke-dasharray="" stroke-dashoffset="0"
       font-family="none" font-size="none"
       style="mix-blend-mode: normal">
        <path d="M0,172v-172h172v172z" fill="none"></path>
        <g fill="#FFFFFF">
            <path
                    d="M141.54167,154.08333h-32.25c-4.94858,0 -8.95833,-4.00975 -8.95833,-8.95833v-32.25c0,-3.95958 -3.20708,-7.16667 -7.16667,-7.16667h-14.33333c-3.95958,0 -7.16667,3.20708 -7.16667,7.16667v32.25c0,4.94858 -4.00975,8.95833 -8.95833,8.95833h-32.25c-4.94858,0 -8.95833,-4.00975 -8.95833,-8.95833v-68.39508c0,-8.23808 3.77683,-16.02108 10.24475,-21.11658l50.92633,-40.12975c1.95292,-1.53367 4.70492,-1.53367 6.65425,0l50.9335,40.12975c6.46792,5.0955 10.24117,12.87492 10.24117,21.10942v68.40225c0,4.94858 -4.00975,8.95833 -8.95833,8.95833z"></path>
        </g>
    </g>
</svg>