<svg width="18" height="17" viewBox="0 0 18 17" fill="none" xmlns="http://www.w3.org/2000/svg">
<path d="M0.502053 15.9547C0.477053 16.2297 0.679724 16.4729 0.954732 16.4979L5.43625 16.9053C5.71126 16.9304 5.95447 16.7277 5.97947 16.4527C6.00447 16.1777 5.8018 15.9345 5.52679 15.9095L1.54321 15.5473L1.90536 11.5637C1.93036 11.2887 1.72769 11.0455 1.45268 11.0205C1.17767 10.9955 0.934465 11.1982 0.909464 11.4732L0.502053 15.9547ZM6.67991 10.6159L0.679908 15.6159L1.32009 16.3841L7.32009 11.3841L6.67991 10.6159Z" fill="#D9D9D9"/>
<path d="M17.4235 1.03785C17.4444 0.762503 17.2381 0.52234 16.9628 0.501435L12.4757 0.160763C12.2003 0.139857 11.9602 0.346125 11.9393 0.621475C11.9184 0.896825 12.1246 1.13699 12.4 1.15789L16.3885 1.46071L16.0857 5.44923C16.0648 5.72458 16.2711 5.96475 16.5464 5.98565C16.8218 6.00656 17.0619 5.80029 17.0828 5.52494L17.4235 1.03785ZM11.3258 6.46804L17.2507 1.3793L16.5992 0.620695L10.6742 5.70943L11.3258 6.46804Z" fill="#D9D9D9"/>
</svg>
